<svg width="1680" height="441" viewBox="0 0 1680 441" fill="none" xmlns="http://www.w3.org/2000/svg">
<path d="M0.400002 340.2C0.400002 286.2 36.4 252.9 114.4 249.6L228.4 244.8V228C228.4 183.6 205.6 157.8 150.4 157.8C95.2 157.8 73 183.6 71.8 216H16C18.4 156.6 60.4 111 150.4 111C240.4 111 280.6 156.6 280.6 231V432H229V399H207.4C185.2 428.7 158.2 441 117.4 441C45.4 441 0.400002 400.2 0.400002 340.2ZM54.4 340.2C54.4 373.2 81.4 394.2 129.4 394.2C189.4 394.2 228.4 360 228.4 294V290.4L114.4 295.2C72.4 297 54.4 313.2 54.4 340.2ZM362.875 432V-1.71661e-05H416.875V154.8H439.675C463.675 124.2 493.075 111 536.875 111C606.475 111 684.475 162 684.475 276C684.475 390 606.475 441 536.875 441C490.675 441 460.075 424.8 436.075 391.8H411.475V432H362.875ZM413.875 276C413.875 351 458.875 393 521.875 393C584.875 393 629.875 351 629.875 276C629.875 201 584.875 159 521.875 159C458.875 159 413.875 201 413.875 276ZM894.78 111C985.38 111 1057.38 168 1057.38 276C1057.38 384 985.38 441 894.78 441C804.18 441 732.18 384 732.18 276C732.18 168 804.18 111 894.78 111ZM894.78 159C831.78 159 786.78 201 786.78 276C786.78 351 831.78 393 894.78 393C957.78 393 1002.78 351 1002.78 276C1002.78 201 957.78 159 894.78 159ZM1409.92 120V432H1356.52V397.8H1333.72C1312.72 424.2 1287.52 441 1241.92 441C1169.92 441 1121.92 396 1121.92 315V120H1175.92V306C1175.92 363 1205.92 393 1259.92 393C1319.92 393 1355.92 357 1355.92 282V120H1409.92ZM1463.13 168V120H1535.13V36H1589.13V120H1670.13V168H1589.13V384H1679.13V432H1637.13C1568.13 432 1535.13 399 1535.13 330V168H1463.13Z" fill="white"/>
</svg>
