<svg width="1788" height="325" viewBox="0 0 1788 325" fill="none" xmlns="http://www.w3.org/2000/svg">
<path d="M249.32 218.6C245.48 278.6 203.24 324.2 128.36 324.2C53.48 324.2 0.200001 277.16 0.200001 192.2C0.200001 107.24 53.48 60.2 128.36 60.2C202.76 60.2 244.52 105.8 247.4 158.6H202.76C198.44 123.56 176.36 98.6 128.36 98.6C77.96 98.6 43.88 132.2 43.88 192.2C43.88 252.2 77.96 285.8 128.36 285.8C176.84 285.8 201.32 257.96 204.68 218.6H249.32ZM416.218 60.2C488.698 60.2 546.298 105.8 546.298 192.2C546.298 278.6 488.698 324.2 416.218 324.2C343.738 324.2 286.138 278.6 286.138 192.2C286.138 105.8 343.738 60.2 416.218 60.2ZM416.218 98.6C365.818 98.6 329.818 132.2 329.818 192.2C329.818 252.2 365.818 285.8 416.218 285.8C466.618 285.8 502.618 252.2 502.618 192.2C502.618 132.2 466.618 98.6 416.218 98.6ZM599.131 317V67.4H641.851V94.76H660.091C676.411 73.16 697.051 60.2 733.531 60.2C791.131 60.2 829.531 96.2 829.531 161V317H786.331V168.2C786.331 122.6 762.331 98.6 719.131 98.6C671.131 98.6 642.331 127.4 642.331 187.4V317H599.131ZM863.401 105.8V67.4H921.001V0.199987H964.201V67.4H1029V105.8H964.201V278.6H1036.2V317H1002.6C947.401 317 921.001 290.6 921.001 235.4V105.8H863.401ZM1071.81 243.56C1071.81 200.36 1100.61 173.72 1163.01 171.08L1254.21 167.24V153.8C1254.21 118.28 1235.97 97.64 1191.81 97.64C1147.65 97.64 1129.89 118.28 1128.93 144.2H1084.29C1086.21 96.68 1119.81 60.2 1191.81 60.2C1263.81 60.2 1295.97 96.68 1295.97 156.2V317H1254.69V290.6H1237.41C1219.65 314.36 1198.05 324.2 1165.41 324.2C1107.81 324.2 1071.81 291.56 1071.81 243.56ZM1115.01 243.56C1115.01 269.96 1136.61 286.76 1175.01 286.76C1223.01 286.76 1254.21 259.4 1254.21 206.6V203.72L1163.01 207.56C1129.41 209 1115.01 221.96 1115.01 243.56ZM1596.51 218.6C1592.67 278.6 1550.43 324.2 1475.55 324.2C1400.67 324.2 1347.39 277.16 1347.39 192.2C1347.39 107.24 1400.67 60.2 1475.55 60.2C1549.95 60.2 1591.71 105.8 1594.59 158.6H1549.95C1545.63 123.56 1523.55 98.6 1475.55 98.6C1425.15 98.6 1391.07 132.2 1391.07 192.2C1391.07 252.2 1425.15 285.8 1475.55 285.8C1524.03 285.8 1548.51 257.96 1551.87 218.6H1596.51ZM1614.34 105.8V67.4H1671.94V0.199987H1715.14V67.4H1779.94V105.8H1715.14V278.6H1787.14V317H1753.54C1698.34 317 1671.94 290.6 1671.94 235.4V105.8H1614.34Z" fill="#0064FF"/>
</svg>
