<svg width="134" height="25" viewBox="0 0 134 25" fill="none" xmlns="http://www.w3.org/2000/svg">
<path d="M0.24 18V1.36H3.088V3.152H4.304C5.232 1.744 6.48 0.879999 8.72 0.879999C10.992 0.879999 12.72 2 13.648 3.792H14.992C15.888 1.968 17.264 0.879999 20.08 0.879999C23.6 0.879999 25.84 3.44 25.84 7.44V18H22.96V7.76C22.96 4.88 21.52 3.44 18.8 3.44C16.56 3.44 14.48 4.88 14.48 8.56V18H11.6V7.76C11.6 4.88 10.16 3.44 7.44 3.44C5.2 3.44 3.12 4.88 3.12 8.56V18H0.24ZM42.4175 18V1.36H45.2655V3.152H46.4815C47.4095 1.744 48.6575 0.879999 50.8975 0.879999C53.1695 0.879999 54.8975 2 55.8255 3.792H57.1695C58.0655 1.968 59.4415 0.879999 62.2575 0.879999C65.7775 0.879999 68.0175 3.44 68.0175 7.44V18H65.1375V7.76C65.1375 4.88 63.6975 3.44 60.9775 3.44C58.7375 3.44 56.6575 4.88 56.6575 8.56V18H53.7775V7.76C53.7775 4.88 52.3375 3.44 49.6175 3.44C47.3775 3.44 45.2975 4.88 45.2975 8.56V18H42.4175ZM108.796 9.68C108.796 15.76 104.636 18.48 100.924 18.48C98.5877 18.48 97.0197 17.776 95.7397 16.144H94.5237V24.08H91.6437V1.36H94.4917V3.248H95.7077C97.0197 1.584 98.5877 0.879999 100.924 0.879999C104.636 0.879999 108.796 3.6 108.796 9.68ZM105.884 9.68C105.884 5.68 103.484 3.44 100.124 3.44C96.7637 3.44 94.3637 5.68 94.3637 9.68C94.3637 13.68 96.7637 15.92 100.124 15.92C103.484 15.92 105.884 13.68 105.884 9.68ZM116.373 18V17.36L122.485 9.776L116.421 2V1.36H119.413L124.133 7.36H125.381L129.941 1.36H132.917V2.032L127.125 9.776L133.077 17.36V18H130.069L125.381 11.84H124.133L119.381 18H116.373Z" fill="black"/>
</svg>
