<svg width="1880" height="328" viewBox="0 0 1880 328" fill="none" xmlns="http://www.w3.org/2000/svg">
<path d="M1643.59 242.04V232.992L1730.1 125.77L1644.27 15.8332V6.78491H1686.62L1753.42 91.6125H1771.08L1835.62 6.78491H1877.74V16.2856L1795.76 125.77L1880 232.992V242.04H1837.43L1771.08 154.95H1753.42L1686.17 242.04H1643.59Z" fill="white"/>
<path d="M1536.35 124.414C1536.35 210.372 1477.48 248.828 1424.94 248.828C1391.88 248.828 1369.69 238.874 1351.57 215.801H1334.37V328H1293.61V6.7862H1333.91V33.4786H1351.12C1369.69 9.95311 1391.88 0 1424.94 0C1477.48 0 1536.35 38.4552 1536.35 124.414ZM1495.14 124.414C1495.14 67.8621 1461.17 36.1931 1413.62 36.1931C1366.07 36.1931 1332.1 67.8621 1332.1 124.414C1332.1 180.966 1366.07 212.635 1413.62 212.635C1461.17 212.635 1495.14 180.966 1495.14 124.414Z" fill="white"/>
<path d="M596.921 242.041V6.7862H637.228V32.1214H654.438C667.571 12.2152 685.234 0 716.936 0C749.091 0 773.547 15.8345 786.681 41.1697H805.702C818.383 15.3821 837.857 0 877.711 0C927.529 0 959.231 36.1931 959.231 92.7448V242.041H918.471V97.269C918.471 56.5517 898.091 36.1931 859.596 36.1931C827.894 36.1931 798.456 56.5517 798.456 108.579V242.041H757.696V97.269C757.696 56.5517 737.316 36.1931 698.821 36.1931C667.119 36.1931 637.681 56.5517 637.681 108.579V242.041H596.921Z" fill="white"/>
<path d="M0 242.041V6.7862H40.307V32.1214H57.5167C70.6505 12.2152 88.3131 0 120.015 0C152.17 0 176.626 15.8345 189.76 41.1697H208.781C221.462 15.3821 240.936 0 280.79 0C330.608 0 362.31 36.1931 362.31 92.7448V242.041H321.55V97.269C321.55 56.5517 301.17 36.1931 262.675 36.1931C230.973 36.1931 201.535 56.5517 201.535 108.579V242.041H160.775V97.269C160.775 56.5517 140.395 36.1931 101.9 36.1931C70.1976 36.1931 40.7599 56.5517 40.7599 108.579V242.041H0Z" fill="white"/>
</svg>
