<svg width="1433" height="441" viewBox="0 0 1433 441" fill="none" xmlns="http://www.w3.org/2000/svg">
<path d="M1144.29 432V0H1198.29V265.2L1362.99 120H1432.29V132L1296.69 248.1L1432.29 420V432H1373.19L1256.79 282.3L1198.29 332.4V432H1144.29Z" fill="black"/>
<path d="M908.738 432V120H962.738V161.4H984.938C998.738 131.4 1014.34 118.8 1056.94 118.8H1091.74V171.6H1048.54C990.338 171.6 962.738 195 962.738 255V432H908.738Z" fill="black"/>
<path d="M680.096 111C770.696 111 842.696 168 842.696 276C842.696 384 770.696 441 680.096 441C589.496 441 517.496 384 517.496 276C517.496 168 589.496 111 680.096 111ZM680.096 159C617.096 159 572.096 201 572.096 276C572.096 351 617.096 393 680.096 393C743.096 393 788.096 351 788.096 276C788.096 201 743.096 159 680.096 159Z" fill="black"/>
<path d="M0 132V120H52.8L115.8 382.2H139.2L193.2 120H286.2L340.2 382.2H363.6L426.6 120H479.4V132L403.2 432H301.5L245.7 172.8H233.7L177.9 432H76.2L0 132Z" fill="black"/>
</svg>
