<svg width="1433" height="441" viewBox="0 0 1433 441" fill="none" xmlns="http://www.w3.org/2000/svg">
<path d="M0.200001 132V120H53L116 382.2H139.4L193.4 120H286.4L340.4 382.2H363.8L426.8 120H479.6V132L403.4 432H301.7L245.9 172.8H233.9L178.1 432H76.4L0.200001 132ZM680.295 111C770.895 111 842.895 168 842.895 276C842.895 384 770.895 441 680.295 441C589.695 441 517.695 384 517.695 276C517.695 168 589.695 111 680.295 111ZM680.295 159C617.295 159 572.295 201 572.295 276C572.295 351 617.295 393 680.295 393C743.295 393 788.295 351 788.295 276C788.295 201 743.295 159 680.295 159ZM908.938 432V120H962.938V161.4H985.138C998.938 131.4 1014.54 118.8 1057.14 118.8H1091.94V171.6H1048.74C990.538 171.6 962.938 195 962.938 255V432H908.938ZM1144.48 432V-1.71661e-05H1198.48V265.2L1363.18 120H1432.48V132L1296.88 248.1L1432.48 420V432H1373.38L1256.98 282.3L1198.48 332.4V432H1144.48Z" fill="black"/>
</svg>
